<?xml version="1.0" standalone="no"?><!DOCTYPE svg PUBLIC "-//W3C//DTD SVG 1.1//EN" "http://www.w3.org/Graphics/SVG/1.1/DTD/svg11.dtd"><svg t="1579079904756" class="icon" viewBox="0 0 1024 1024" version="1.1" xmlns="http://www.w3.org/2000/svg" p-id="4365" width="16" height="16" xmlns:xlink="http://www.w3.org/1999/xlink"><defs><style type="text/css"></style></defs><path d="M213.333333 256h597.333334a85.333333 85.333333 0 0 1 85.333333 85.333333v384a85.333333 85.333333 0 0 1-85.333333 85.333334H213.333333a85.333333 85.333333 0 0 1-85.333333-85.333334V341.333333a85.333333 85.333333 0 0 1 85.333333-85.333333z m560.810667 78.506667L512 475.648 249.856 334.506667a32 32 0 1 0-30.378667 56.32l277.333334 149.333333c9.472 5.12 20.906667 5.12 30.378666 0l277.333334-149.333333a32 32 0 0 0-30.378667-56.32z" fill="#000000" p-id="4366"></path></svg>